<?xml version="1.0" encoding="UTF-8"?>
<svg width="30px" height="30px" viewBox="0 0 30 30" version="1.1" xmlns="http://www.w3.org/2000/svg"
     xmlns:xlink="http://www.w3.org/1999/xlink">
    <title>logo</title>
    <g id="控件" stroke="none" stroke-width="1" fill="none" fill-rule="evenodd">
        <g id="导航整合/无侧边导航/顶部一级导航/深色底" transform="translate(-32.000000, -14.000000)">
            <g id="logo" transform="translate(32.000000, 14.000000)">
                <g id="icon">
                    <path d="M12.8585767,0 L12.8585767,3.95636908 L3.42636553,9.40208726 L3.42636553,20.2933809 L12.8585767,25.739099 L12.8585767,29.6956109 L0,22.2717082 L0,7.42390272 L12.8585767,0 Z"
                          id="形状结合" fill="#0167ED" fill-rule="nonzero"></path>
                    <path d="M12.8490624,0 L16.4180624,2.06 L16.4180624,27.634 L12.8490624,29.6956109 L12.8490624,0 Z"
                          id="形状结合" fill="#00A6FF"></path>
                    <path d="M17.3105424,2.57588009 L20.1655424,4.22488009 L20.1655424,25.4708801 L17.3105424,27.1188801 L17.3105424,2.57588009 Z"
                          id="形状结合" fill="#00CCDF"></path>
                    <path d="M21.0581856,4.73901088 L22.8421856,5.76901088 L22.8421856,23.9250109 L21.0581856,24.9550109 L21.0581856,4.73901088 Z"
                          id="形状结合" fill-opacity="0.7" fill="#00CCDF"></path>
                    <path d="M23.7350736,6.28502709 L24.4480736,6.69602709 L24.4480736,22.9980271 L23.7350736,23.4100271 L23.7350736,6.28502709 Z"
                          id="形状结合" fill-opacity="0.4" fill="#00CCDF"></path>
                    <path d="M25.3412064,7.21191624 L25.6972064,7.41691624 L25.6972064,22.2769162 L25.3412064,22.4819162 L25.3412064,7.21191624 Z"
                          id="形状结合" fill="#00CCDF" opacity="0.1"></path>
                </g>
            </g>
        </g>
    </g>
</svg>
